<?xml version="1.0" encoding="UTF-8" standalone="no"?>
<!DOCTYPE svg PUBLIC "-//W3C//DTD SVG 1.1//EN"
 "http://www.w3.org/Graphics/SVG/1.1/DTD/svg11.dtd">
<!-- Generated by graphviz version 13.1.2 (20250808.2320)
 -->
<!-- Title: SM Pages: 1 -->
<svg width="493pt" height="1200pt"
 viewBox="0.00 0.00 493.00 1200.00" xmlns="http://www.w3.org/2000/svg" xmlns:xlink="http://www.w3.org/1999/xlink">
<g id="graph0" class="graph" transform="scale(1 1) rotate(0) translate(4 1195.94)">
<title>SM</title>
<polygon fill="white" stroke="none" points="-4,4 -4,-1195.94 488.5,-1195.94 488.5,4 -4,4"/>
<g id="clust1" class="cluster">
<title>cluster_solving</title>
<path fill="#e8f4f7" stroke="#2f8fa8" stroke-width="1.4" d="M20,-217.84C20,-217.84 377,-217.84 377,-217.84 383,-217.84 389,-223.84 389,-229.84 389,-229.84 389,-973.54 389,-973.54 389,-979.54 383,-985.54 377,-985.54 377,-985.54 20,-985.54 20,-985.54 14,-985.54 8,-979.54 8,-973.54 8,-973.54 8,-229.84 8,-229.84 8,-223.84 14,-217.84 20,-217.84"/>
<text xml:space="preserve" text-anchor="middle" x="182.88" y="-971.09" font-family="Helvetica,sans-Serif" font-size="11.00">Solving — gated solve loop (per level; Execute = the only RHAE cost)</text>
</g>
<g id="clust2" class="cluster">
<title>cluster_consider</title>
<path fill="#ede7f6" stroke="#9673a6" stroke-width="1.4" d="M28,-380.84C28,-380.84 271,-380.84 271,-380.84 277,-380.84 283,-386.84 283,-392.84 283,-392.84 283,-820.14 283,-820.14 283,-826.14 277,-832.14 271,-832.14 271,-832.14 28,-832.14 28,-832.14 22,-832.14 16,-826.14 16,-820.14 16,-820.14 16,-392.84 16,-392.84 16,-386.84 22,-380.84 28,-380.84"/>
<text xml:space="preserve" text-anchor="middle" x="140.25" y="-817.69" font-family="Helvetica,sans-Serif" font-size="11.00">Consider — build the Conception (multi&#45;solution)</text>
</g>
<g id="clust3" class="cluster">
<title>cluster_plan</title>
<path fill="#fff0dd" stroke="#d79b00" stroke-width="1.4" d="M36,-388.84C36,-388.84 263,-388.84 263,-388.84 269,-388.84 275,-394.84 275,-400.84 275,-400.84 275,-593.74 275,-593.74 275,-599.74 269,-605.74 263,-605.74 263,-605.74 36,-605.74 36,-605.74 30,-605.74 24,-599.74 24,-593.74 24,-593.74 24,-400.84 24,-400.84 24,-394.84 30,-388.84 36,-388.84"/>
<text xml:space="preserve" text-anchor="middle" x="149.75" y="-591.29" font-family="Helvetica,sans-Serif" font-size="11.00">Plan — look&#45;ahead on in&#45;house sim (RHAE&#45;free)</text>
</g>
<!-- n_boot -->
<g id="node1" class="node">
<title>n_boot</title>
<ellipse fill="#333333" stroke="black" cx="367" cy="-1184.74" rx="7.2" ry="7.2"/>
</g>
<!-- n_Loading -->
<g id="node2" class="node">
<title>n_Loading</title>
<path fill="#f0f0ff" stroke="#6c6c8a" stroke-width="1.2" d="M382.12,-1140.54C382.12,-1140.54 351.88,-1140.54 351.88,-1140.54 345.88,-1140.54 339.88,-1134.54 339.88,-1128.54 339.88,-1128.54 339.88,-1116.54 339.88,-1116.54 339.88,-1110.54 345.88,-1104.54 351.88,-1104.54 351.88,-1104.54 382.12,-1104.54 382.12,-1104.54 388.12,-1104.54 394.12,-1110.54 394.12,-1116.54 394.12,-1116.54 394.12,-1128.54 394.12,-1128.54 394.12,-1134.54 388.12,-1140.54 382.12,-1140.54"/>
<text xml:space="preserve" text-anchor="middle" x="367" y="-1118.84" font-family="Helvetica,sans-Serif" font-size="11.00">Loading</text>
</g>
<!-- n_boot&#45;&gt;n_Loading -->
<g id="edge1" class="edge">
<title>n_boot&#45;&gt;n_Loading</title>
<path fill="none" stroke="#444444" d="M367,-1177.3C367,-1171.24 367,-1161.73 367,-1152.38"/>
<polygon fill="#444444" stroke="#444444" points="370.5,-1152.42 367,-1142.42 363.5,-1152.42 370.5,-1152.42"/>
</g>
<!-- n_NewGame -->
<g id="node3" class="node">
<title>n_NewGame</title>
<path fill="#f0f0ff" stroke="#6c6c8a" stroke-width="1.2" d="M388.88,-1058.04C388.88,-1058.04 345.12,-1058.04 345.12,-1058.04 339.12,-1058.04 333.12,-1052.04 333.12,-1046.04 333.12,-1046.04 333.12,-1034.04 333.12,-1034.04 333.12,-1028.04 339.12,-1022.04 345.12,-1022.04 345.12,-1022.04 388.88,-1022.04 388.88,-1022.04 394.88,-1022.04 400.88,-1028.04 400.88,-1034.04 400.88,-1034.04 400.88,-1046.04 400.88,-1046.04 400.88,-1052.04 394.88,-1058.04 388.88,-1058.04"/>
<text xml:space="preserve" text-anchor="middle" x="367" y="-1036.34" font-family="Helvetica,sans-Serif" font-size="11.00">NewGame</text>
</g>
<!-- n_Loading&#45;&gt;n_NewGame -->
<g id="edge2" class="edge">
<title>n_Loading&#45;&gt;n_NewGame</title>
<path fill="none" stroke="#444444" d="M367,-1104.07C367,-1094.05 367,-1081.22 367,-1069.75"/>
<polygon fill="#444444" stroke="#444444" points="370.5,-1069.99 367,-1059.99 363.5,-1069.99 370.5,-1069.99"/>
<text xml:space="preserve" text-anchor="middle" x="381.25" y="-1077.99" font-family="Helvetica,sans-Serif" font-size="9.00">loaded</text>
</g>
<!-- n_s_init -->
<g id="node4" class="node">
<title>n_s_init</title>
<ellipse fill="#333333" stroke="black" cx="367" cy="-948.84" rx="7.2" ry="7.2"/>
</g>
<!-- n_NewGame&#45;&gt;n_s_init -->
<g id="edge3" class="edge">
<title>n_NewGame&#45;&gt;n_s_init</title>
<path fill="none" stroke="#444444" d="M367,-1021.84C367,-1014.6 367,-1005.78 367,-996.83"/>
<polygon fill="#444444" stroke="#444444" points="370.5,-997.05 367,-987.05 363.5,-997.05 370.5,-997.05"/>
<text xml:space="preserve" text-anchor="middle" x="386.88" y="-995.49" font-family="Helvetica,sans-Serif" font-size="9.00">first frame</text>
</g>
<!-- n_Explore -->
<g id="node5" class="node">
<title>n_Explore</title>
<path fill="#e8f4f7" stroke="#6c6c8a" stroke-width="1.2" d="M322,-904.64C322,-904.64 292,-904.64 292,-904.64 286,-904.64 280,-898.64 280,-892.64 280,-892.64 280,-880.64 280,-880.64 280,-874.64 286,-868.64 292,-868.64 292,-868.64 322,-868.64 322,-868.64 328,-868.64 334,-874.64 334,-880.64 334,-880.64 334,-892.64 334,-892.64 334,-898.64 328,-904.64 322,-904.64"/>
<text xml:space="preserve" text-anchor="middle" x="307" y="-882.94" font-family="Helvetica,sans-Serif" font-size="11.00">Explore</text>
</g>
<!-- n_s_init&#45;&gt;n_Explore -->
<g id="edge4" class="edge">
<title>n_s_init&#45;&gt;n_Explore</title>
<path fill="none" stroke="#444444" d="M362.29,-943.12C355.8,-936.6 343.62,-924.38 332.34,-913.07"/>
<polygon fill="#444444" stroke="#444444" points="334.99,-910.77 325.45,-906.15 330.03,-915.71 334.99,-910.77"/>
</g>
<!-- n_c_init -->
<g id="node6" class="node">
<title>n_c_init</title>
<ellipse fill="#333333" stroke="black" cx="268" cy="-795.44" rx="7.2" ry="7.2"/>
</g>
<!-- n_Explore&#45;&gt;n_c_init -->
<g id="edge5" class="edge">
<title>n_Explore&#45;&gt;n_c_init</title>
<path fill="none" stroke="#444444" d="M299.48,-868.44C296.05,-860.59 291.81,-850.89 287.56,-841.19"/>
<polygon fill="#444444" stroke="#444444" points="290.81,-839.88 283.6,-832.12 284.4,-842.69 290.81,-839.88"/>
<text xml:space="preserve" text-anchor="middle" x="320.24" y="-842.09" font-family="Helvetica,sans-Serif" font-size="9.00">enough signal</text>
</g>
<!-- n_ModelWorld -->
<g id="node7" class="node">
<title>n_ModelWorld</title>
<path fill="#ede7f6" stroke="#6c6c8a" stroke-width="1.2" d="M262.88,-751.24C262.88,-751.24 213.12,-751.24 213.12,-751.24 207.12,-751.24 201.12,-745.24 201.12,-739.24 201.12,-739.24 201.12,-727.24 201.12,-727.24 201.12,-721.24 207.12,-715.24 213.12,-715.24 213.12,-715.24 262.88,-715.24 262.88,-715.24 268.88,-715.24 274.88,-721.24 274.88,-727.24 274.88,-727.24 274.88,-739.24 274.88,-739.24 274.88,-745.24 268.88,-751.24 262.88,-751.24"/>
<text xml:space="preserve" text-anchor="middle" x="238" y="-729.54" font-family="Helvetica,sans-Serif" font-size="11.00">ModelWorld</text>
</g>
<!-- n_c_init&#45;&gt;n_ModelWorld -->
<g id="edge6" class="edge">
<title>n_c_init&#45;&gt;n_ModelWorld</title>
<path fill="none" stroke="#444444" d="M265.01,-788.45C261.87,-782.13 256.69,-771.74 251.7,-761.73"/>
<polygon fill="#444444" stroke="#444444" points="254.93,-760.37 247.34,-752.98 248.67,-763.5 254.93,-760.37"/>
</g>
<!-- n_ModelGoal -->
<g id="node8" class="node">
<title>n_ModelGoal</title>
<path fill="#ede7f6" stroke="#6c6c8a" stroke-width="1.2" d="M259.88,-678.24C259.88,-678.24 216.12,-678.24 216.12,-678.24 210.12,-678.24 204.12,-672.24 204.12,-666.24 204.12,-666.24 204.12,-654.24 204.12,-654.24 204.12,-648.24 210.12,-642.24 216.12,-642.24 216.12,-642.24 259.88,-642.24 259.88,-642.24 265.88,-642.24 271.88,-648.24 271.88,-654.24 271.88,-654.24 271.88,-666.24 271.88,-666.24 271.88,-672.24 265.88,-678.24 259.88,-678.24"/>
<text xml:space="preserve" text-anchor="middle" x="238" y="-656.54" font-family="Helvetica,sans-Serif" font-size="11.00">ModelGoal</text>
</g>
<!-- n_ModelWorld&#45;&gt;n_ModelGoal -->
<g id="edge7" class="edge">
<title>n_ModelWorld&#45;&gt;n_ModelGoal</title>
<path fill="none" stroke="#444444" d="M238,-714.69C238,-707.21 238,-698.29 238,-689.89"/>
<polygon fill="#444444" stroke="#444444" points="241.5,-690.1 238,-680.1 234.5,-690.1 241.5,-690.1"/>
</g>
<!-- n_p_init -->
<g id="node9" class="node">
<title>n_p_init</title>
<ellipse fill="#333333" stroke="black" cx="238" cy="-569.04" rx="7.2" ry="7.2"/>
</g>
<!-- n_ModelGoal&#45;&gt;n_p_init -->
<g id="edge8" class="edge">
<title>n_ModelGoal&#45;&gt;n_p_init</title>
<path fill="none" stroke="#444444" d="M224.12,-641.66C220.7,-636.36 217.52,-630.32 215.75,-624.24 215.06,-621.87 214.7,-619.45 214.62,-617.03"/>
<polygon fill="#444444" stroke="#444444" points="218.07,-617.6 215.83,-607.24 211.13,-616.73 218.07,-617.6"/>
<text xml:space="preserve" text-anchor="middle" x="231.88" y="-615.69" font-family="Helvetica,sans-Serif" font-size="9.00">goal set</text>
</g>
<!-- n_Simulate -->
<g id="node10" class="node">
<title>n_Simulate</title>
<path fill="#fff0dd" stroke="#6c6c8a" stroke-width="1.2" d="M255,-515.34C255,-515.34 221,-515.34 221,-515.34 215,-515.34 209,-509.34 209,-503.34 209,-503.34 209,-491.34 209,-491.34 209,-485.34 215,-479.34 221,-479.34 221,-479.34 255,-479.34 255,-479.34 261,-479.34 267,-485.34 267,-491.34 267,-491.34 267,-503.34 267,-503.34 267,-509.34 261,-515.34 255,-515.34"/>
<text xml:space="preserve" text-anchor="middle" x="238" y="-493.64" font-family="Helvetica,sans-Serif" font-size="11.00">Simulate</text>
</g>
<!-- n_p_init&#45;&gt;n_Simulate -->
<g id="edge9" class="edge">
<title>n_p_init&#45;&gt;n_Simulate</title>
<path fill="none" stroke="#444444" d="M238,-561.36C238,-553.37 238,-539.5 238,-526.8"/>
<polygon fill="#444444" stroke="#444444" points="241.5,-527.18 238,-517.18 234.5,-527.18 241.5,-527.18"/>
</g>
<!-- n_Evaluate -->
<g id="node11" class="node">
<title>n_Evaluate</title>
<path fill="#fff0dd" stroke="#6c6c8a" stroke-width="1.2" d="M255,-432.84C255,-432.84 221,-432.84 221,-432.84 215,-432.84 209,-426.84 209,-420.84 209,-420.84 209,-408.84 209,-408.84 209,-402.84 215,-396.84 221,-396.84 221,-396.84 255,-396.84 255,-396.84 261,-396.84 267,-402.84 267,-408.84 267,-408.84 267,-420.84 267,-420.84 267,-426.84 261,-432.84 255,-432.84"/>
<text xml:space="preserve" text-anchor="middle" x="238" y="-411.14" font-family="Helvetica,sans-Serif" font-size="11.00">Evaluate</text>
</g>
<!-- n_Simulate&#45;&gt;n_Evaluate -->
<g id="edge10" class="edge">
<title>n_Simulate&#45;&gt;n_Evaluate</title>
<path fill="none" stroke="#444444" d="M225.26,-479.01C221.99,-473.62 218.93,-467.47 217.25,-461.34 215.59,-455.27 216.53,-448.99 218.73,-443.1"/>
<polygon fill="#444444" stroke="#444444" points="221.74,-444.92 223.1,-434.42 215.48,-441.78 221.74,-444.92"/>
<text xml:space="preserve" text-anchor="middle" x="231.12" y="-452.79" font-family="Helvetica,sans-Serif" font-size="9.00">predict</text>
</g>
<!-- n_Evaluate&#45;&gt;n_Simulate -->
<g id="edge11" class="edge">
<title>n_Evaluate&#45;&gt;n_Simulate</title>
<path fill="none" stroke="#444444" d="M243.36,-433.12C244.85,-438.72 246.26,-444.99 247,-450.84 247.71,-456.44 247.35,-462.38 246.47,-468.06"/>
<polygon fill="#444444" stroke="#444444" points="243.08,-467.15 244.39,-477.67 249.92,-468.64 243.08,-467.15"/>
</g>
<!-- n_Execute -->
<g id="node12" class="node">
<title>n_Execute</title>
<path fill="#e8f4f7" stroke="#6c6c8a" stroke-width="1.2" d="M261.5,-344.34C261.5,-344.34 230.5,-344.34 230.5,-344.34 224.5,-344.34 218.5,-338.34 218.5,-332.34 218.5,-332.34 218.5,-320.34 218.5,-320.34 218.5,-314.34 224.5,-308.34 230.5,-308.34 230.5,-308.34 261.5,-308.34 261.5,-308.34 267.5,-308.34 273.5,-314.34 273.5,-320.34 273.5,-320.34 273.5,-332.34 273.5,-332.34 273.5,-338.34 267.5,-344.34 261.5,-344.34"/>
<text xml:space="preserve" text-anchor="middle" x="246" y="-322.64" font-family="Helvetica,sans-Serif" font-size="11.00">Execute</text>
</g>
<!-- n_Evaluate&#45;&gt;n_Execute -->
<g id="edge12" class="edge">
<title>n_Evaluate&#45;&gt;n_Execute</title>
<path fill="none" stroke="#444444" d="M240.31,-388.84C241.25,-378.66 242.35,-366.82 243.32,-356.27"/>
<polygon fill="#444444" stroke="#444444" points="246.81,-356.61 244.24,-346.33 239.84,-355.96 246.81,-356.61"/>
<text xml:space="preserve" text-anchor="middle" x="264.47" y="-364.29" font-family="Helvetica,sans-Serif" font-size="9.00">plan found</text>
</g>
<!-- n_Diagnose -->
<g id="node13" class="node">
<title>n_Diagnose</title>
<path fill="#e8f4f7" stroke="#6c6c8a" stroke-width="1.2" d="M322.88,-261.84C322.88,-261.84 285.12,-261.84 285.12,-261.84 279.12,-261.84 273.12,-255.84 273.12,-249.84 273.12,-249.84 273.12,-237.84 273.12,-237.84 273.12,-231.84 279.12,-225.84 285.12,-225.84 285.12,-225.84 322.88,-225.84 322.88,-225.84 328.88,-225.84 334.88,-231.84 334.88,-237.84 334.88,-237.84 334.88,-249.84 334.88,-249.84 334.88,-255.84 328.88,-261.84 322.88,-261.84"/>
<text xml:space="preserve" text-anchor="middle" x="304" y="-240.14" font-family="Helvetica,sans-Serif" font-size="11.00">Diagnose</text>
</g>
<!-- n_Execute&#45;&gt;n_Diagnose -->
<g id="edge13" class="edge">
<title>n_Execute&#45;&gt;n_Diagnose</title>
<path fill="none" stroke="#444444" d="M252.63,-308.13C256.45,-299.26 261.74,-288.52 268,-279.84 270.31,-276.63 272.94,-273.46 275.69,-270.42"/>
<polygon fill="#444444" stroke="#444444" points="278.12,-272.94 282.58,-263.32 273.1,-268.06 278.12,-272.94"/>
<text xml:space="preserve" text-anchor="middle" x="284.5" y="-281.79" font-family="Helvetica,sans-Serif" font-size="9.00">observe</text>
</g>
<!-- n_Diagnose&#45;&gt;n_c_init -->
<g id="edge14" class="edge">
<title>n_Diagnose&#45;&gt;n_c_init</title>
<path fill="none" stroke="#444444" d="M305.38,-262.42C306.53,-278.72 308,-303.65 308,-325.34 308,-734.24 308,-734.24 308,-734.24 308,-748.9 299.67,-762.72 290.61,-773.41"/>
<polygon fill="#444444" stroke="#444444" points="288.27,-770.78 284.03,-780.49 293.4,-775.55 288.27,-770.78"/>
<text xml:space="preserve" text-anchor="middle" x="344.38" y="-535.29" font-family="Helvetica,sans-Serif" font-size="9.00">re&#45;model / re&#45;plan</text>
</g>
<!-- n_LevelCleared -->
<g id="node14" class="node">
<title>n_LevelCleared</title>
<path fill="#f0f0ff" stroke="#6c6c8a" stroke-width="1.2" d="M426.88,-179.34C426.88,-179.34 371.12,-179.34 371.12,-179.34 365.12,-179.34 359.12,-173.34 359.12,-167.34 359.12,-167.34 359.12,-155.34 359.12,-155.34 359.12,-149.34 365.12,-143.34 371.12,-143.34 371.12,-143.34 426.88,-143.34 426.88,-143.34 432.88,-143.34 438.88,-149.34 438.88,-155.34 438.88,-155.34 438.88,-167.34 438.88,-167.34 438.88,-173.34 432.88,-179.34 426.88,-179.34"/>
<text xml:space="preserve" text-anchor="middle" x="399" y="-157.64" font-family="Helvetica,sans-Serif" font-size="11.00">LevelCleared</text>
</g>
<!-- n_Diagnose&#45;&gt;n_LevelCleared -->
<g id="edge15" class="edge">
<title>n_Diagnose&#45;&gt;n_LevelCleared</title>
<path fill="none" stroke="#444444" d="M333.5,-217.84C345.03,-208.07 358.23,-196.89 369.74,-187.13"/>
<polygon fill="#444444" stroke="#444444" points="371.91,-189.89 377.27,-180.75 367.38,-184.55 371.91,-189.89"/>
<text xml:space="preserve" text-anchor="middle" x="364.31" y="-199.29" font-family="Helvetica,sans-Serif" font-size="9.00">win</text>
</g>
<!-- n_GameOver -->
<g id="node15" class="node">
<title>n_GameOver</title>
<path fill="#f0f0ff" stroke="#6c6c8a" stroke-width="1.2" d="M322.25,-179.34C322.25,-179.34 277.75,-179.34 277.75,-179.34 271.75,-179.34 265.75,-173.34 265.75,-167.34 265.75,-167.34 265.75,-155.34 265.75,-155.34 265.75,-149.34 271.75,-143.34 277.75,-143.34 277.75,-143.34 322.25,-143.34 322.25,-143.34 328.25,-143.34 334.25,-149.34 334.25,-155.34 334.25,-155.34 334.25,-167.34 334.25,-167.34 334.25,-173.34 328.25,-179.34 322.25,-179.34"/>
<text xml:space="preserve" text-anchor="middle" x="300" y="-157.64" font-family="Helvetica,sans-Serif" font-size="11.00">GameOver</text>
</g>
<!-- n_Diagnose&#45;&gt;n_GameOver -->
<g id="edge16" class="edge">
<title>n_Diagnose&#45;&gt;n_GameOver</title>
<path fill="none" stroke="#444444" d="M302.76,-217.84C302.34,-209.36 301.86,-199.81 301.43,-191.05"/>
<polygon fill="#444444" stroke="#444444" points="304.93,-191.1 300.94,-181.28 297.94,-191.45 304.93,-191.1"/>
<text xml:space="preserve" text-anchor="middle" x="311.24" y="-199.29" font-family="Helvetica,sans-Serif" font-size="9.00">over</text>
</g>
<!-- n_LevelCleared&#45;&gt;n_s_init -->
<g id="edge17" class="edge">
<title>n_LevelCleared&#45;&gt;n_s_init</title>
<path fill="none" stroke="#444444" d="M399,-179.93C399,-196.24 399,-221.18 399,-242.84 399,-887.64 399,-887.64 399,-887.64 399,-895.22 397,-902.77 394,-909.84"/>
<polygon fill="#444444" stroke="#444444" points="391.04,-907.93 389.68,-918.44 397.29,-911.07 391.04,-907.93"/>
<text xml:space="preserve" text-anchor="middle" x="441.75" y="-565.74" font-family="Helvetica,sans-Serif" font-size="9.00">next level (carry WM)</text>
</g>
<!-- n_Done -->
<g id="node16" class="node">
<title>n_Done</title>
<path fill="#f0f0ff" stroke="#6c6c8a" stroke-width="1.2" d="M364,-96.84C364,-96.84 334,-96.84 334,-96.84 328,-96.84 322,-90.84 322,-84.84 322,-84.84 322,-72.84 322,-72.84 322,-66.84 328,-60.84 334,-60.84 334,-60.84 364,-60.84 364,-60.84 370,-60.84 376,-66.84 376,-72.84 376,-72.84 376,-84.84 376,-84.84 376,-90.84 370,-96.84 364,-96.84"/>
<text xml:space="preserve" text-anchor="middle" x="349" y="-75.14" font-family="Helvetica,sans-Serif" font-size="11.00">Done</text>
</g>
<!-- n_LevelCleared&#45;&gt;n_Done -->
<g id="edge18" class="edge">
<title>n_LevelCleared&#45;&gt;n_Done</title>
<path fill="none" stroke="#444444" d="M388.15,-142.87C381.6,-132.32 373.11,-118.66 365.72,-106.76"/>
<polygon fill="#444444" stroke="#444444" points="368.88,-105.21 360.63,-98.56 362.93,-108.9 368.88,-105.21"/>
<text xml:space="preserve" text-anchor="middle" x="398.37" y="-116.79" font-family="Helvetica,sans-Serif" font-size="9.00">all cleared</text>
</g>
<!-- n_GameOver&#45;&gt;n_Done -->
<g id="edge19" class="edge">
<title>n_GameOver&#45;&gt;n_Done</title>
<path fill="none" stroke="#444444" d="M309.89,-142.95C314.8,-134.43 320.87,-124.04 326.5,-114.84 328.11,-112.22 329.8,-109.5 331.51,-106.79"/>
<polygon fill="#444444" stroke="#444444" points="334.39,-108.78 336.82,-98.47 328.49,-105.01 334.39,-108.78"/>
<text xml:space="preserve" text-anchor="middle" x="342.25" y="-116.79" font-family="Helvetica,sans-Serif" font-size="9.00">no lives</text>
</g>
<!-- n_end -->
<g id="node17" class="node">
<title>n_end</title>
<ellipse fill="#333333" stroke="black" cx="349" cy="-11.92" rx="7.92" ry="7.92"/>
<ellipse fill="none" stroke="black" cx="349" cy="-11.92" rx="11.92" ry="11.92"/>
</g>
<!-- n_Done&#45;&gt;n_end -->
<g id="edge20" class="edge">
<title>n_Done&#45;&gt;n_end</title>
<path fill="none" stroke="#444444" d="M349,-60.44C349,-52.76 349,-43.63 349,-35.44"/>
<polygon fill="#444444" stroke="#444444" points="352.5,-35.55 349,-25.55 345.5,-35.55 352.5,-35.55"/>
</g>
</g>
</svg>
